PathFileType	4	(X/Y/Z)	D:\TRACE\spotREDO_2-26-24\spot_baseline_1-platform.trc
DataRate	CameraRate	NumFrames	NumMarkers	Units	OrigDataRate	OrigDataStartFrame	OrigNumFrames
100.00	100.00	      75	5	mm	100.00	5251	      7000
Frame#	Time	Left_Front			Right_Front			Left_Aft			Right_Aft			Post			
		X1	Y1	Z1	X2	Y2	Z2	X3	Y3	Z3	X4	Y4	Z4	X5	Y5	Z5	

5251	52.500	-696.90582	-3.90544	-575.65436	718.10815	5.13587	-490.92130	-768.16248	4.76669	643.57324	801.28693	11.13647	647.51892	4.45057	741.38483	-982.81561	
5252	52.510	-696.89056	-3.90425	-575.65698	718.26996	4.88347	-490.75232	-768.17029	4.75791	643.58588	801.22296	11.34184	647.80383	4.40925	741.40906	-982.83649	
5253	52.520	-696.85651	-3.89225	-575.69531	718.24036	4.89549	-490.71353	-768.13672	4.76379	643.59448	801.30322	11.40668	647.83557	4.45926	741.44489	-982.82300	
5254	52.530	-696.88922	-3.88467	-575.68134	718.27374	4.88310	-490.75061	-768.12488	4.77529	643.59222	801.25439	11.38018	647.83087	4.46401	741.41400	-982.89618	
5255	52.540	-696.89099	-3.86365	-575.65222	718.14526	5.11214	-490.88443	-768.16772	4.78112	643.57800	801.23651	11.39352	647.80359	4.48469	741.43005	-982.89191	
5256	52.550	-696.87183	-3.89944	-575.65771	718.24744	4.86197	-490.73856	-768.10547	4.75694	643.58215	801.31000	11.41712	647.82184	4.46814	741.37512	-982.86328	
5257	52.560	-696.88794	-3.86527	-575.68671	718.27350	4.91567	-490.75055	-768.15924	4.79019	643.60846	801.21057	11.39135	647.81757	4.46769	741.36981	-982.87885	
5258	52.570	-696.88043	-3.87879	-575.67139	718.18665	4.87860	-490.79214	-768.16956	4.78853	643.59235	801.23511	11.38612	647.80664	4.44142	741.37634	-982.85785	
5259	52.580	-696.89087	-3.86966	-575.65973	718.23132	5.08392	-490.73688	-768.17767	4.74814	643.57794	801.25244	11.43645	647.78326	4.41383	741.39954	-982.81171	
5260	52.590	-696.88611	-3.84979	-575.65955	718.23602	4.99560	-490.76654	-768.05701	4.99190	643.66559	801.34564	11.53354	647.82330	4.42708	741.40881	-982.79529	
5261	52.600	-696.89520	-3.90161	-575.64008	718.27386	4.79716	-490.76111	-767.99359	5.04019	643.68146	801.27814	11.46444	647.83136	4.43852	741.37823	-982.80261	
5262	52.610	-696.91199	-3.85038	-575.64368	718.25519	4.91326	-490.74597	-768.14392	4.77231	643.59857	801.24017	11.08913	647.55914	4.50691	741.38477	-982.81354	
5263	52.620	-696.85620	-3.89390	-575.65588	718.25073	4.83598	-490.77466	-768.13794	4.78787	643.59711	801.25488	10.80442	647.41980	4.51144	741.44214	-982.84222	
5264	52.630	-696.93896	-3.83693	-575.63208	718.19720	4.83895	-490.76660	-768.15472	4.65586	643.62225	801.26971	10.93849	647.48743	4.34120	741.51276	-982.75580	
5265	52.640	-696.86127	-3.87510	-575.66138	718.25311	4.90402	-490.71945	-768.11371	4.81950	643.58826	801.38983	11.07474	647.51196	4.39470	741.45776	-982.78143	
5266	52.650	-696.90100	-3.88493	-575.64044	718.26514	4.87911	-490.75064	-768.10870	4.95211	643.67145	801.35504	11.47036	647.84418	4.45818	741.42767	-982.76001	
5267	52.660	-696.89838	-3.88602	-575.65967	718.27130	4.89548	-490.76096	-768.12421	4.86459	643.59894	801.28766	11.39852	647.79706	4.43544	741.44226	-982.72351	
5268	52.670	-696.88306	-3.88739	-575.65668	718.24841	4.88022	-490.76465	-768.11096	4.80304	643.59503	801.20465	11.06527	647.49500	4.32147	741.44312	-982.69330	
5269	52.680	-696.89020	-3.89918	-575.68787	718.15881	4.79957	-490.79230	-768.13159	4.76143	643.56854	801.19922	11.36484	647.80609	4.32744	741.40039	-982.70221	
5270	52.690	-696.86981	-3.90837	-575.68561	718.07782	5.02180	-490.93509	-768.14233	4.76670	643.57111	801.22333	11.13099	647.51404	4.41018	741.35468	-982.78479	
5271	52.700	-696.87946	-3.89579	-575.66205	718.27765	4.87479	-490.72580	-768.11267	4.85872	643.62152	801.33582	11.44530	647.83832	4.45669	741.38293	-982.82281	
5272	52.710	-696.85406	-3.87643	-575.67725	718.29297	4.94349	-490.73157	-768.14569	4.86155	643.60132	801.28876	11.43616	647.80896	4.50857	741.40643	-982.93555	
5273	52.720	-696.86639	-3.88974	-575.66614	718.27710	4.97265	-490.72516	-768.11865	4.83956	643.61383	801.29895	11.12122	647.50311	4.51285	741.38055	-983.01404	
5274	52.730	-696.91931	-3.86670	-575.67365	718.22980	4.98851	-490.74017	-768.10547	4.83494	643.60321	801.31628	11.08131	647.48389	4.44498	741.40118	-983.01086	
5275	52.740	-696.86182	-3.85446	-575.68915	718.19165	4.83154	-490.79056	-768.12396	4.75414	643.60364	801.26361	11.07856	647.46533	4.47793	741.42493	-982.98071	
5276	52.750	-696.88495	-3.86135	-575.68048	718.21143	4.84336	-490.70862	-768.15308	4.78104	643.57831	801.26392	11.40162	647.83752	4.44949	741.41370	-982.86389	
5277	52.760	-696.86224	-3.88680	-575.68225	718.14374	5.10843	-490.90384	-768.11188	4.86630	643.60150	801.34949	11.43695	647.85504	4.45008	741.41040	-982.77252	
5278	52.770	-696.86951	-3.89389	-575.67853	718.27789	4.88410	-490.73904	-768.08447	4.87490	643.60040	801.23926	11.39735	647.85278	4.36321	741.44458	-982.66113	
5279	52.780	-696.86401	-3.92695	-575.67786	718.28424	4.87984	-490.72488	-768.12750	4.87188	643.60638	801.22656	11.39502	647.80566	4.37165	741.44043	-982.61548	
5280	52.790	-696.90033	-3.89805	-575.66553	718.20819	4.83369	-490.78174	-768.14673	4.79349	643.58716	801.21832	11.07416	647.44666	4.36374	741.41071	-982.64410	
5281	52.800	-696.91382	-3.87256	-575.66431	718.02631	5.00805	-490.94168	-768.13031	4.77243	643.57526	801.16772	11.32653	647.81049	4.35318	741.40845	-982.67017	
5282	52.810	-696.87708	-3.89008	-575.65369	718.11572	5.08998	-490.94604	-768.12463	4.79959	643.58954	801.37250	11.46043	647.86139	4.41409	741.43347	-982.74280	
5283	52.820	-696.88568	-3.88135	-575.64990	718.29620	4.92614	-490.74524	-768.12030	4.85745	643.61444	801.29755	11.10964	647.48584	4.43530	741.44171	-982.82770	
5284	52.830	-696.85028	-3.85602	-575.65106	718.26666	4.96531	-490.70444	-767.95715	4.98158	643.70361	801.23456	10.96885	647.41492	4.48160	741.41687	-982.94330	
5285	52.840	-696.87177	-3.87065	-575.66235	718.25720	4.93157	-490.74646	-768.11432	4.78916	643.59918	801.24432	11.04718	647.48627	4.51455	741.39911	-983.01202	
5286	52.850	-696.88629	-3.87606	-575.69812	718.16858	4.86489	-490.78238	-768.15173	4.77980	643.58557	801.31995	11.12170	647.48029	4.47470	741.39807	-983.01453	
5287	52.860	-696.88788	-3.88330	-575.67505	718.09546	5.05973	-490.96811	-768.11377	4.77273	643.56635	801.28796	11.38833	647.79443	4.47551	741.39178	-982.99176	
5288	52.870	-696.87140	-3.91286	-575.68317	718.08704	5.10098	-490.90845	-768.07764	4.82474	643.61530	801.29895	11.41365	647.83002	4.53046	741.35834	-982.90344	
5289	52.880	-696.88007	-3.88173	-575.66663	718.30353	4.89378	-490.76465	-768.01202	5.01158	643.72205	801.23468	11.39845	647.79938	4.43214	741.38208	-982.79669	
5290	52.890	-696.86761	-3.87393	-575.68524	718.11566	5.13033	-490.92017	-768.11084	4.87507	643.62048	801.21381	11.35682	647.79895	4.37510	741.42419	-982.77454	
5291	52.900	-696.88824	-3.88200	-575.66956	718.22327	4.86402	-490.77991	-768.16742	4.80318	643.58698	801.24274	11.35910	647.81134	4.38922	741.43665	-982.73700	
5292	52.910	-696.88434	-3.88626	-575.65546	718.21930	4.83440	-490.74954	-768.15344	4.77192	643.56580	801.26721	11.40617	647.82391	4.37529	741.43793	-982.72919	
5293	52.920	-696.88354	-3.86601	-575.68439	718.24579	4.89877	-490.74841	-768.10425	4.79708	643.60504	801.30182	11.17454	647.56769	4.40338	741.46320	-982.72131	
5294	52.930	-696.87482	-3.85337	-575.65887	718.29938	4.99934	-490.71130	-768.12170	4.81162	643.58844	801.29480	11.08296	647.50671	4.45820	741.44012	-982.73248	
5295	52.940	-696.92523	-3.84311	-575.66174	718.10516	5.18689	-490.85672	-768.13708	4.81044	643.60376	801.22534	11.07286	647.55194	4.41875	741.46973	-982.76556	
5296	52.950	-696.88287	-3.87650	-575.67993	718.28735	4.91105	-490.76172	-768.12097	4.81379	643.61774	801.30432	11.03010	647.42511	4.43718	741.44135	-982.78906	
5297	52.960	-696.91962	-3.84477	-575.65656	718.15948	4.82139	-490.80673	-768.14856	4.79108	643.58966	801.24475	11.09038	647.50708	4.39317	741.43542	-982.80847	
5298	52.970	-696.87299	-3.90410	-575.67963	718.17474	4.83555	-490.79892	-768.10394	4.78148	643.61298	801.29950	11.40484	647.81244	4.46177	741.35895	-982.81616	
5299	52.980	-696.89569	-3.89941	-575.64111	718.20532	4.82649	-490.72849	-768.12299	4.81482	643.60278	801.20270	11.37244	647.86768	4.45050	741.34283	-982.85883	
5300	52.990	-696.85431	-3.91058	-575.67456	718.12982	5.15177	-490.90442	-768.11224	4.83587	643.60266	801.23401	11.36767	647.81409	4.46785	741.36865	-982.88226	
5301	53.000	-696.89868	-3.86754	-575.63934	718.10712	5.11672	-490.90408	-768.12299	4.90619	643.62952	801.22968	11.36486	647.81262	4.45387	741.40869	-982.86682	
5302	53.010	-696.89557	-3.88288	-575.67346	718.21338	4.86479	-490.78793	-768.12109	4.80804	643.59644	801.25110	11.35708	647.79504	4.45714	741.39752	-982.94635	
5303	53.020	-696.89484	-3.85093	-575.67914	718.17706	4.85711	-490.77951	-768.10834	4.78673	643.59235	801.30920	11.17909	647.60992	4.43628	741.39764	-982.93243	
5304	53.030	-696.86243	-3.89200	-575.67456	718.18951	4.90409	-490.81311	-768.09924	4.79175	643.60724	801.27161	11.39216	647.81738	4.46032	741.38745	-982.89978	
5305	53.040	-696.86157	-3.86011	-575.67462	718.24078	4.94361	-490.77655	-768.13202	4.81628	643.61438	801.26691	11.08773	647.48499	4.42666	741.44623	-982.83453	
5306	53.050	-696.90002	-3.86464	-575.66211	718.25299	4.98261	-490.72794	-768.12952	4.83800	643.62048	801.25189	11.16354	647.51294	4.38577	741.47980	-982.72729	
5307	53.060	-696.87561	-3.86902	-575.69458	718.24890	4.94415	-490.73996	-768.03625	4.95214	643.69489	801.22675	11.35948	647.79602	4.36202	741.45142	-982.71051	
5308	53.070	-696.89948	-3.86102	-575.66492	718.24023	4.83869	-490.78583	-768.11334	4.78489	643.61047	801.29865	11.13743	647.52191	4.33574	741.43549	-982.67554	
5309	53.080	-696.85706	-3.90431	-575.67633	718.25769	4.83748	-490.78769	-768.09711	4.80824	643.60608	801.22052	11.40835	647.83905	4.34310	741.39221	-982.69708	
5310	53.090	-696.84625	-3.93836	-575.67841	718.18652	4.83995	-490.76843	-768.11542	4.82815	643.60510	801.26630	11.41727	647.82764	4.36559	741.41931	-982.72021	
5311	53.100	-696.89850	-3.85748	-575.66772	718.25812	4.88232	-490.73990	-768.08533	4.85789	643.60553	801.22809	11.39998	647.80542	4.40019	741.42621	-982.76074	
5312	53.110	-696.91254	-3.87268	-575.66986	718.10162	5.17697	-490.91260	-768.09955	4.84989	643.62488	801.26117	11.10770	647.48346	4.48247	741.44775	-982.85547	
5313	53.120	-696.91138	-3.87600	-575.66003	718.24817	4.89165	-490.74207	-768.13470	4.81985	643.57819	801.24170	11.05070	647.48334	4.50697	741.41766	-982.95618	
5314	53.130	-696.89764	-3.85958	-575.67059	718.17719	4.83625	-490.80228	-768.10596	4.80150	643.61224	801.30933	11.04722	647.48657	4.45617	741.43127	-982.93951	
5315	53.140	-696.90350	-3.88336	-575.62903	718.20038	4.85311	-490.80905	-768.09393	4.85088	643.63336	801.23553	11.32157	647.84790	4.48538	741.40564	-982.93140	
5316	53.150	-696.89050	-3.88089	-575.66455	718.26935	4.94017	-490.73764	-768.14276	4.81975	643.58624	801.20490	11.34783	647.82153	4.47274	741.43005	-982.86469	
5317	53.160	-696.88007	-3.89719	-575.67017	718.26819	5.06808	-490.73740	-768.11725	4.44051	643.61432	801.28491	11.45131	647.82544	4.36147	741.44464	-982.76038	
5318	53.170	-696.88770	-3.91885	-575.68756	718.30804	4.97076	-490.70853	-768.17883	4.82095	643.54504	801.23120	11.35620	647.79956	4.35007	741.43335	-982.70703	
5319	53.180	-696.87897	-3.88856	-575.70349	718.19653	4.86694	-490.80600	-768.14880	4.76317	643.54773	801.22858	11.49649	647.78217	4.30027	741.38776	-982.64691	
5320	53.190	-696.84143	-3.97387	-575.69519	718.19196	4.81158	-490.79041	-768.13873	4.78352	643.54272	801.30499	11.53426	647.80536	4.37782	741.30396	-982.68439	
5321	53.200	-696.83856	-3.98339	-575.68079	718.19611	4.88401	-490.80569	-768.17560	4.79674	643.57361	801.21991	11.48174	647.79712	4.45989	741.28802	-982.78320	
5322	53.210	-696.84143	-3.98996	-575.66699	718.08246	5.13245	-491.01291	-768.14984	4.64206	643.54327	801.34998	11.10512	647.43262	4.42082	741.35333	-982.82471	
5323	53.220	-696.82690	-3.96637	-575.67853	718.14563	5.17553	-490.89471	-768.19397	4.66971	643.56152	801.22375	11.12648	647.47882	4.44241	741.35767	-983.06000	
5324	53.230	-696.81293	-3.97659	-575.65173	718.12415	5.07792	-490.93036	-768.15845	4.78547	643.55957	801.23132	11.40031	647.77118	4.53508	741.33038	-983.08179	
5325	53.240	-696.82916	-4.00893	-575.67322	718.10333	5.07734	-490.95624	-768.18079	4.76044	643.59576	801.23840	11.41792	647.80127	4.55468	741.30634	-983.15161	
